<mxfile host="app.diagrams.net" agent="Mozilla/5.0 (Windows NT 10.0; Win64; x64) AppleWebKit/537.36 (KHTML, like Gecko) Chrome/133.0.0.0 Safari/537.36 Edg/133.0.0.0" version="26.0.16">
  <diagram id="C5RBs43oDa-KdzZeNtuy" name="Page-1">
    <mxGraphModel dx="1789" dy="1003" grid="1" gridSize="10" guides="1" tooltips="1" connect="1" arrows="1" fold="1" page="1" pageScale="1" pageWidth="827" pageHeight="1169" math="0" shadow="0">
      <root>
        <mxCell id="WIyWlLk6GJQsqaUBKTNV-0" />
        <mxCell id="WIyWlLk6GJQsqaUBKTNV-1" parent="WIyWlLk6GJQsqaUBKTNV-0" />
        <mxCell id="O_Hls6zDi3jGi4kRHV9n-76" value="" style="rounded=0;whiteSpace=wrap;html=1;fillColor=light-dark(#99FFFF,var(--ge-dark-color, #121212));" parent="WIyWlLk6GJQsqaUBKTNV-1" vertex="1">
          <mxGeometry x="180" y="40" width="180" height="110" as="geometry" />
        </mxCell>
        <mxCell id="O_Hls6zDi3jGi4kRHV9n-0" value="Actor" style="shape=umlActor;verticalLabelPosition=bottom;verticalAlign=top;html=1;outlineConnect=0;" parent="WIyWlLk6GJQsqaUBKTNV-1" vertex="1">
          <mxGeometry x="80" y="530" width="30" height="60" as="geometry" />
        </mxCell>
        <mxCell id="O_Hls6zDi3jGi4kRHV9n-18" value="" style="rounded=0;whiteSpace=wrap;html=1;fillColor=light-dark(#99FFFF,var(--ge-dark-color, #121212));" parent="WIyWlLk6GJQsqaUBKTNV-1" vertex="1">
          <mxGeometry x="500" y="380" width="120" height="60" as="geometry" />
        </mxCell>
        <mxCell id="O_Hls6zDi3jGi4kRHV9n-19" value="" style="rounded=1;whiteSpace=wrap;html=1;fillColor=light-dark(#FFCC99,var(--ge-dark-color, #121212));" parent="WIyWlLk6GJQsqaUBKTNV-1" vertex="1">
          <mxGeometry x="200" y="530" width="120" height="60" as="geometry" />
        </mxCell>
        <mxCell id="O_Hls6zDi3jGi4kRHV9n-38" value="Аутентификация" style="text;html=1;align=center;verticalAlign=middle;whiteSpace=wrap;rounded=0;" parent="WIyWlLk6GJQsqaUBKTNV-1" vertex="1">
          <mxGeometry x="230" y="545" width="60" height="30" as="geometry" />
        </mxCell>
        <mxCell id="O_Hls6zDi3jGi4kRHV9n-41" value="" style="rounded=0;whiteSpace=wrap;html=1;fillColor=light-dark(#99FFFF,var(--ge-dark-color, #121212));" parent="WIyWlLk6GJQsqaUBKTNV-1" vertex="1">
          <mxGeometry x="500" y="530" width="120" height="60" as="geometry" />
        </mxCell>
        <mxCell id="O_Hls6zDi3jGi4kRHV9n-42" value="Проверка логина и пароля" style="text;html=1;align=center;verticalAlign=middle;whiteSpace=wrap;rounded=0;" parent="WIyWlLk6GJQsqaUBKTNV-1" vertex="1">
          <mxGeometry x="530" y="545" width="60" height="30" as="geometry" />
        </mxCell>
        <mxCell id="O_Hls6zDi3jGi4kRHV9n-44" value="" style="rounded=0;whiteSpace=wrap;html=1;fillColor=light-dark(#99FFFF,var(--ge-dark-color, #121212));" parent="WIyWlLk6GJQsqaUBKTNV-1" vertex="1">
          <mxGeometry x="500" y="680" width="120" height="60" as="geometry" />
        </mxCell>
        <mxCell id="O_Hls6zDi3jGi4kRHV9n-45" value="" style="endArrow=classic;html=1;rounded=0;exitX=0.5;exitY=1;exitDx=0;exitDy=0;entryX=0.5;entryY=0;entryDx=0;entryDy=0;" parent="WIyWlLk6GJQsqaUBKTNV-1" source="O_Hls6zDi3jGi4kRHV9n-41" target="O_Hls6zDi3jGi4kRHV9n-44" edge="1">
          <mxGeometry relative="1" as="geometry">
            <mxPoint x="510" y="620" as="sourcePoint" />
            <mxPoint x="610" y="620" as="targetPoint" />
          </mxGeometry>
        </mxCell>
        <mxCell id="O_Hls6zDi3jGi4kRHV9n-46" value="Неверный ввод" style="edgeLabel;resizable=0;html=1;;align=center;verticalAlign=middle;" parent="O_Hls6zDi3jGi4kRHV9n-45" connectable="0" vertex="1">
          <mxGeometry relative="1" as="geometry" />
        </mxCell>
        <mxCell id="O_Hls6zDi3jGi4kRHV9n-47" value="Уведомление об ошибке" style="text;html=1;align=center;verticalAlign=middle;whiteSpace=wrap;rounded=0;" parent="WIyWlLk6GJQsqaUBKTNV-1" vertex="1">
          <mxGeometry x="530" y="695" width="60" height="30" as="geometry" />
        </mxCell>
        <mxCell id="O_Hls6zDi3jGi4kRHV9n-49" value="" style="endArrow=classic;html=1;rounded=0;exitX=0.5;exitY=0;exitDx=0;exitDy=0;entryX=0.5;entryY=1;entryDx=0;entryDy=0;" parent="WIyWlLk6GJQsqaUBKTNV-1" source="O_Hls6zDi3jGi4kRHV9n-41" target="O_Hls6zDi3jGi4kRHV9n-18" edge="1">
          <mxGeometry relative="1" as="geometry">
            <mxPoint x="500" y="470" as="sourcePoint" />
            <mxPoint x="560" y="450" as="targetPoint" />
          </mxGeometry>
        </mxCell>
        <mxCell id="O_Hls6zDi3jGi4kRHV9n-50" value="Верный ввод" style="edgeLabel;resizable=0;html=1;;align=center;verticalAlign=middle;" parent="O_Hls6zDi3jGi4kRHV9n-49" connectable="0" vertex="1">
          <mxGeometry relative="1" as="geometry" />
        </mxCell>
        <mxCell id="O_Hls6zDi3jGi4kRHV9n-51" value="Главная страница" style="text;html=1;align=center;verticalAlign=middle;whiteSpace=wrap;rounded=0;" parent="WIyWlLk6GJQsqaUBKTNV-1" vertex="1">
          <mxGeometry x="530" y="395" width="60" height="30" as="geometry" />
        </mxCell>
        <mxCell id="O_Hls6zDi3jGi4kRHV9n-52" value="" style="endArrow=none;html=1;rounded=0;entryX=0;entryY=0.5;entryDx=0;entryDy=0;" parent="WIyWlLk6GJQsqaUBKTNV-1" target="O_Hls6zDi3jGi4kRHV9n-19" edge="1">
          <mxGeometry width="50" height="50" relative="1" as="geometry">
            <mxPoint x="120" y="560" as="sourcePoint" />
            <mxPoint x="170" y="520" as="targetPoint" />
          </mxGeometry>
        </mxCell>
        <mxCell id="O_Hls6zDi3jGi4kRHV9n-53" value="" style="endArrow=classic;html=1;rounded=0;entryX=0;entryY=0.5;entryDx=0;entryDy=0;" parent="WIyWlLk6GJQsqaUBKTNV-1" target="O_Hls6zDi3jGi4kRHV9n-41" edge="1">
          <mxGeometry relative="1" as="geometry">
            <mxPoint x="320" y="559.66" as="sourcePoint" />
            <mxPoint x="420" y="559.66" as="targetPoint" />
          </mxGeometry>
        </mxCell>
        <mxCell id="O_Hls6zDi3jGi4kRHV9n-57" value="Ввод логина и пароля" style="edgeLabel;html=1;align=center;verticalAlign=middle;resizable=0;points=[];" parent="O_Hls6zDi3jGi4kRHV9n-53" vertex="1" connectable="0">
          <mxGeometry x="-0.0367" y="2" relative="1" as="geometry">
            <mxPoint as="offset" />
          </mxGeometry>
        </mxCell>
        <mxCell id="O_Hls6zDi3jGi4kRHV9n-58" value="&amp;lt;&amp;lt;extend&amp;gt;&amp;gt;" style="html=1;verticalAlign=bottom;endArrow=open;dashed=1;endSize=8;curved=0;rounded=0;entryX=1;entryY=1;entryDx=0;entryDy=0;" parent="WIyWlLk6GJQsqaUBKTNV-1" target="O_Hls6zDi3jGi4kRHV9n-19" edge="1">
          <mxGeometry relative="1" as="geometry">
            <mxPoint x="500" y="709.66" as="sourcePoint" />
            <mxPoint x="420" y="709.66" as="targetPoint" />
          </mxGeometry>
        </mxCell>
        <mxCell id="O_Hls6zDi3jGi4kRHV9n-59" value="" style="rounded=1;whiteSpace=wrap;html=1;fillColor=light-dark(#FFCC99,var(--ge-dark-color, #121212));" parent="WIyWlLk6GJQsqaUBKTNV-1" vertex="1">
          <mxGeometry x="500" y="220" width="120" height="60" as="geometry" />
        </mxCell>
        <mxCell id="O_Hls6zDi3jGi4kRHV9n-61" value="Воспроизвести хит месяца" style="text;html=1;align=center;verticalAlign=middle;whiteSpace=wrap;rounded=0;" parent="WIyWlLk6GJQsqaUBKTNV-1" vertex="1">
          <mxGeometry x="530" y="235" width="60" height="30" as="geometry" />
        </mxCell>
        <mxCell id="O_Hls6zDi3jGi4kRHV9n-63" value="" style="endArrow=classic;html=1;rounded=0;entryX=0.5;entryY=1;entryDx=0;entryDy=0;" parent="WIyWlLk6GJQsqaUBKTNV-1" target="O_Hls6zDi3jGi4kRHV9n-59" edge="1">
          <mxGeometry relative="1" as="geometry">
            <mxPoint x="560" y="380" as="sourcePoint" />
            <mxPoint x="480" y="360" as="targetPoint" />
          </mxGeometry>
        </mxCell>
        <mxCell id="O_Hls6zDi3jGi4kRHV9n-64" value="Нажатие на кнопку &quot;воспроизвести&quot;" style="edgeLabel;resizable=0;html=1;;align=center;verticalAlign=middle;" parent="O_Hls6zDi3jGi4kRHV9n-63" connectable="0" vertex="1">
          <mxGeometry relative="1" as="geometry">
            <mxPoint y="-20" as="offset" />
          </mxGeometry>
        </mxCell>
        <mxCell id="O_Hls6zDi3jGi4kRHV9n-65" value="" style="rounded=1;whiteSpace=wrap;html=1;fillColor=light-dark(#FFCC99,var(--ge-dark-color, #121212));" parent="WIyWlLk6GJQsqaUBKTNV-1" vertex="1">
          <mxGeometry x="200" y="220" width="120" height="60" as="geometry" />
        </mxCell>
        <mxCell id="O_Hls6zDi3jGi4kRHV9n-66" value="Добавление в избранное" style="text;html=1;align=center;verticalAlign=middle;whiteSpace=wrap;rounded=0;" parent="WIyWlLk6GJQsqaUBKTNV-1" vertex="1">
          <mxGeometry x="220" y="235" width="80" height="30" as="geometry" />
        </mxCell>
        <mxCell id="O_Hls6zDi3jGi4kRHV9n-68" value="" style="endArrow=classic;html=1;rounded=0;entryX=1;entryY=1;entryDx=0;entryDy=0;exitX=0;exitY=0.5;exitDx=0;exitDy=0;" parent="WIyWlLk6GJQsqaUBKTNV-1" source="O_Hls6zDi3jGi4kRHV9n-18" target="O_Hls6zDi3jGi4kRHV9n-65" edge="1">
          <mxGeometry relative="1" as="geometry">
            <mxPoint x="350" y="380" as="sourcePoint" />
            <mxPoint x="450" y="380" as="targetPoint" />
          </mxGeometry>
        </mxCell>
        <mxCell id="O_Hls6zDi3jGi4kRHV9n-71" value="Нажатие на кнопку&quot;❤️&quot;" style="edgeLabel;html=1;align=center;verticalAlign=middle;resizable=0;points=[];" parent="O_Hls6zDi3jGi4kRHV9n-68" vertex="1" connectable="0">
          <mxGeometry x="0.0465" relative="1" as="geometry">
            <mxPoint as="offset" />
          </mxGeometry>
        </mxCell>
        <mxCell id="O_Hls6zDi3jGi4kRHV9n-72" value="" style="rounded=0;whiteSpace=wrap;html=1;fillColor=light-dark(#99FFFF,var(--ge-dark-color, #121212));" parent="WIyWlLk6GJQsqaUBKTNV-1" vertex="1">
          <mxGeometry x="470" y="40" width="180" height="110" as="geometry" />
        </mxCell>
        <mxCell id="O_Hls6zDi3jGi4kRHV9n-73" value="" style="endArrow=classic;html=1;rounded=0;entryX=0.5;entryY=1;entryDx=0;entryDy=0;" parent="WIyWlLk6GJQsqaUBKTNV-1" target="O_Hls6zDi3jGi4kRHV9n-72" edge="1">
          <mxGeometry width="50" height="50" relative="1" as="geometry">
            <mxPoint x="560" y="220" as="sourcePoint" />
            <mxPoint x="610" y="170" as="targetPoint" />
          </mxGeometry>
        </mxCell>
        <mxCell id="O_Hls6zDi3jGi4kRHV9n-74" value="- Загрузка плейлиста &quot;Хиты месяца&quot;&lt;div&gt;&lt;br&gt;&lt;div&gt;- Воспроизведение трека&lt;/div&gt;&lt;div&gt;&lt;br&gt;&lt;/div&gt;&lt;div&gt;- Обновление статистики прослушиваний&lt;/div&gt;&lt;div&gt;&lt;br&gt;&lt;/div&gt;&lt;/div&gt;" style="text;strokeColor=none;fillColor=none;align=left;verticalAlign=middle;spacingLeft=4;spacingRight=4;overflow=hidden;points=[[0,0.5],[1,0.5]];portConstraint=eastwest;rotatable=0;whiteSpace=wrap;html=1;" parent="WIyWlLk6GJQsqaUBKTNV-1" vertex="1">
          <mxGeometry x="480" y="40" width="160" height="120" as="geometry" />
        </mxCell>
        <mxCell id="O_Hls6zDi3jGi4kRHV9n-78" value="" style="endArrow=classic;html=1;rounded=0;entryX=0.44;entryY=0.997;entryDx=0;entryDy=0;entryPerimeter=0;" parent="WIyWlLk6GJQsqaUBKTNV-1" target="O_Hls6zDi3jGi4kRHV9n-76" edge="1">
          <mxGeometry width="50" height="50" relative="1" as="geometry">
            <mxPoint x="260" y="220" as="sourcePoint" />
            <mxPoint x="310" y="170" as="targetPoint" />
          </mxGeometry>
        </mxCell>
        <mxCell id="O_Hls6zDi3jGi4kRHV9n-79" value="-&amp;nbsp;&lt;span style=&quot;text-align: center;&quot;&gt;Проверка авторизации&lt;/span&gt;&lt;div&gt;&lt;div style=&quot;text-align: center;&quot;&gt;&lt;br&gt;&lt;/div&gt;&lt;div&gt;&lt;div&gt;-&amp;nbsp;&lt;span style=&quot;text-align: center; background-color: transparent; color: light-dark(rgb(0, 0, 0), rgb(255, 255, 255));&quot;&gt;Добавление трека в раздел &quot;избранное&quot;&lt;/span&gt;&lt;/div&gt;&lt;div&gt;&lt;br&gt;&lt;/div&gt;&lt;div&gt;-&amp;nbsp;&lt;span style=&quot;text-align: center; background-color: transparent; color: light-dark(rgb(0, 0, 0), rgb(255, 255, 255));&quot;&gt;Обновление списка избранных треков&lt;/span&gt;&lt;/div&gt;&lt;div&gt;&lt;br&gt;&lt;/div&gt;&lt;/div&gt;&lt;/div&gt;" style="text;strokeColor=none;fillColor=none;align=left;verticalAlign=middle;spacingLeft=4;spacingRight=4;overflow=hidden;points=[[0,0.5],[1,0.5]];portConstraint=eastwest;rotatable=0;whiteSpace=wrap;html=1;" parent="WIyWlLk6GJQsqaUBKTNV-1" vertex="1">
          <mxGeometry x="190" y="40" width="160" height="120" as="geometry" />
        </mxCell>
        <mxCell id="BaK_DTcCmuOv_4i3QxiW-2" value="Actor" style="shape=umlActor;verticalLabelPosition=bottom;verticalAlign=top;html=1;outlineConnect=0;" vertex="1" parent="WIyWlLk6GJQsqaUBKTNV-1">
          <mxGeometry x="875" y="540" width="30" height="60" as="geometry" />
        </mxCell>
        <mxCell id="BaK_DTcCmuOv_4i3QxiW-15" value="" style="endArrow=none;html=1;rounded=0;entryX=0;entryY=0.5;entryDx=0;entryDy=0;" edge="1" parent="WIyWlLk6GJQsqaUBKTNV-1">
          <mxGeometry width="50" height="50" relative="1" as="geometry">
            <mxPoint x="915" y="570" as="sourcePoint" />
            <mxPoint x="995" y="570" as="targetPoint" />
          </mxGeometry>
        </mxCell>
        <mxCell id="BaK_DTcCmuOv_4i3QxiW-63" value="" style="rounded=0;whiteSpace=wrap;html=1;fillColor=light-dark(#99FFFF,var(--ge-dark-color, #121212));" vertex="1" parent="WIyWlLk6GJQsqaUBKTNV-1">
          <mxGeometry x="995" y="540" width="120" height="60" as="geometry" />
        </mxCell>
        <mxCell id="BaK_DTcCmuOv_4i3QxiW-64" value="Главная страница" style="text;html=1;align=center;verticalAlign=middle;whiteSpace=wrap;rounded=0;" vertex="1" parent="WIyWlLk6GJQsqaUBKTNV-1">
          <mxGeometry x="1025" y="555" width="60" height="30" as="geometry" />
        </mxCell>
        <mxCell id="BaK_DTcCmuOv_4i3QxiW-65" value="" style="endArrow=classic;html=1;rounded=0;exitX=1;exitY=0.5;exitDx=0;exitDy=0;" edge="1" parent="WIyWlLk6GJQsqaUBKTNV-1" source="BaK_DTcCmuOv_4i3QxiW-63">
          <mxGeometry relative="1" as="geometry">
            <mxPoint x="1145" y="560" as="sourcePoint" />
            <mxPoint x="1475" y="570" as="targetPoint" />
          </mxGeometry>
        </mxCell>
        <mxCell id="BaK_DTcCmuOv_4i3QxiW-68" value="Нажатие на кнопку &quot;Создать общий плейлист&quot;" style="edgeLabel;html=1;align=center;verticalAlign=middle;resizable=0;points=[];" vertex="1" connectable="0" parent="BaK_DTcCmuOv_4i3QxiW-65">
          <mxGeometry x="-0.1951" relative="1" as="geometry">
            <mxPoint as="offset" />
          </mxGeometry>
        </mxCell>
        <mxCell id="BaK_DTcCmuOv_4i3QxiW-69" value="" style="rounded=1;whiteSpace=wrap;html=1;fillColor=light-dark(#FFCC99,var(--ge-dark-color, #121212));" vertex="1" parent="WIyWlLk6GJQsqaUBKTNV-1">
          <mxGeometry x="1475" y="540" width="120" height="60" as="geometry" />
        </mxCell>
        <mxCell id="BaK_DTcCmuOv_4i3QxiW-70" value="Создание общего плейлиста" style="text;html=1;align=center;verticalAlign=middle;whiteSpace=wrap;rounded=0;" vertex="1" parent="WIyWlLk6GJQsqaUBKTNV-1">
          <mxGeometry x="1505" y="555" width="60" height="30" as="geometry" />
        </mxCell>
        <mxCell id="BaK_DTcCmuOv_4i3QxiW-71" value="Пользователь заведомо авторизирован" style="text;html=1;align=center;verticalAlign=middle;whiteSpace=wrap;rounded=0;" vertex="1" parent="WIyWlLk6GJQsqaUBKTNV-1">
          <mxGeometry x="860" y="630" width="60" height="30" as="geometry" />
        </mxCell>
        <mxCell id="BaK_DTcCmuOv_4i3QxiW-72" value="Пользователь уже зарегистрирован" style="text;html=1;align=center;verticalAlign=middle;whiteSpace=wrap;rounded=0;" vertex="1" parent="WIyWlLk6GJQsqaUBKTNV-1">
          <mxGeometry x="60" y="630" width="60" height="30" as="geometry" />
        </mxCell>
        <mxCell id="BaK_DTcCmuOv_4i3QxiW-73" value="" style="endArrow=classic;html=1;rounded=0;" edge="1" parent="WIyWlLk6GJQsqaUBKTNV-1">
          <mxGeometry width="50" height="50" relative="1" as="geometry">
            <mxPoint x="1535" y="540" as="sourcePoint" />
            <mxPoint x="1535" y="320" as="targetPoint" />
          </mxGeometry>
        </mxCell>
        <mxCell id="BaK_DTcCmuOv_4i3QxiW-74" value="Ввод параметров для плейлиста&lt;div&gt;(название, обложка, вид доступа и.т.п)&lt;/div&gt;" style="edgeLabel;html=1;align=center;verticalAlign=middle;resizable=0;points=[];" vertex="1" connectable="0" parent="BaK_DTcCmuOv_4i3QxiW-73">
          <mxGeometry x="-0.045" y="3" relative="1" as="geometry">
            <mxPoint as="offset" />
          </mxGeometry>
        </mxCell>
        <mxCell id="BaK_DTcCmuOv_4i3QxiW-76" value="" style="rounded=0;whiteSpace=wrap;html=1;fillColor=light-dark(#99FFFF,var(--ge-dark-color, #121212));" vertex="1" parent="WIyWlLk6GJQsqaUBKTNV-1">
          <mxGeometry x="1475" y="260" width="120" height="60" as="geometry" />
        </mxCell>
        <mxCell id="BaK_DTcCmuOv_4i3QxiW-77" value="Страница с созданным пустым плейлистом" style="text;html=1;align=center;verticalAlign=middle;whiteSpace=wrap;rounded=0;" vertex="1" parent="WIyWlLk6GJQsqaUBKTNV-1">
          <mxGeometry x="1505" y="275" width="60" height="30" as="geometry" />
        </mxCell>
        <mxCell id="BaK_DTcCmuOv_4i3QxiW-78" value="" style="endArrow=classic;html=1;rounded=0;exitX=0;exitY=0.5;exitDx=0;exitDy=0;entryX=1;entryY=0;entryDx=0;entryDy=0;" edge="1" parent="WIyWlLk6GJQsqaUBKTNV-1" source="BaK_DTcCmuOv_4i3QxiW-76" target="BaK_DTcCmuOv_4i3QxiW-83">
          <mxGeometry width="50" height="50" relative="1" as="geometry">
            <mxPoint x="1285" y="510" as="sourcePoint" />
            <mxPoint x="1180" y="300" as="targetPoint" />
          </mxGeometry>
        </mxCell>
        <mxCell id="BaK_DTcCmuOv_4i3QxiW-79" value="Нажатие на кнопку &quot;предоставить доступ&quot;" style="edgeLabel;html=1;align=center;verticalAlign=middle;resizable=0;points=[];" vertex="1" connectable="0" parent="BaK_DTcCmuOv_4i3QxiW-78">
          <mxGeometry x="0.0996" y="1" relative="1" as="geometry">
            <mxPoint as="offset" />
          </mxGeometry>
        </mxCell>
        <mxCell id="BaK_DTcCmuOv_4i3QxiW-83" value="" style="rounded=0;whiteSpace=wrap;html=1;fillColor=light-dark(#99FFFF,var(--ge-dark-color, #121212));" vertex="1" parent="WIyWlLk6GJQsqaUBKTNV-1">
          <mxGeometry x="1100" y="365" width="120" height="60" as="geometry" />
        </mxCell>
        <mxCell id="BaK_DTcCmuOv_4i3QxiW-84" value="Окно с вашими друзьями и персональной ссылкой" style="text;html=1;align=center;verticalAlign=middle;whiteSpace=wrap;rounded=0;" vertex="1" parent="WIyWlLk6GJQsqaUBKTNV-1">
          <mxGeometry x="1110" y="380" width="100" height="30" as="geometry" />
        </mxCell>
        <mxCell id="BaK_DTcCmuOv_4i3QxiW-85" value="" style="endArrow=classic;html=1;rounded=0;" edge="1" parent="WIyWlLk6GJQsqaUBKTNV-1" target="BaK_DTcCmuOv_4i3QxiW-88">
          <mxGeometry width="50" height="50" relative="1" as="geometry">
            <mxPoint x="1160" y="360" as="sourcePoint" />
            <mxPoint x="1110" y="120" as="targetPoint" />
          </mxGeometry>
        </mxCell>
        <mxCell id="BaK_DTcCmuOv_4i3QxiW-86" value="Нажатие кнопки &quot;добавить&quot;" style="edgeLabel;html=1;align=center;verticalAlign=middle;resizable=0;points=[];" vertex="1" connectable="0" parent="BaK_DTcCmuOv_4i3QxiW-85">
          <mxGeometry x="-0.0647" y="4" relative="1" as="geometry">
            <mxPoint as="offset" />
          </mxGeometry>
        </mxCell>
        <mxCell id="BaK_DTcCmuOv_4i3QxiW-88" value="" style="rounded=1;whiteSpace=wrap;html=1;fillColor=light-dark(#FFCC99,var(--ge-dark-color, #121212));" vertex="1" parent="WIyWlLk6GJQsqaUBKTNV-1">
          <mxGeometry x="1100" y="110" width="120" height="60" as="geometry" />
        </mxCell>
        <mxCell id="BaK_DTcCmuOv_4i3QxiW-89" value="Добавление друга в плейлист" style="text;html=1;align=center;verticalAlign=middle;whiteSpace=wrap;rounded=0;" vertex="1" parent="WIyWlLk6GJQsqaUBKTNV-1">
          <mxGeometry x="1130" y="125" width="60" height="30" as="geometry" />
        </mxCell>
        <mxCell id="BaK_DTcCmuOv_4i3QxiW-91" value="" style="rounded=0;whiteSpace=wrap;html=1;fillColor=light-dark(#99FFFF,var(--ge-dark-color, #121212));" vertex="1" parent="WIyWlLk6GJQsqaUBKTNV-1">
          <mxGeometry x="1400" y="70" width="180" height="110" as="geometry" />
        </mxCell>
        <mxCell id="BaK_DTcCmuOv_4i3QxiW-92" value="&lt;div&gt;&lt;br&gt;&lt;div&gt;- Предоставление доступа к плейлисту&amp;nbsp;&lt;/div&gt;&lt;div&gt;&lt;br&gt;&lt;/div&gt;&lt;div&gt;- Обновление количества участников плейлиста&lt;/div&gt;&lt;div&gt;&lt;br&gt;&lt;/div&gt;&lt;/div&gt;" style="text;strokeColor=none;fillColor=none;align=left;verticalAlign=middle;spacingLeft=4;spacingRight=4;overflow=hidden;points=[[0,0.5],[1,0.5]];portConstraint=eastwest;rotatable=0;whiteSpace=wrap;html=1;" vertex="1" parent="WIyWlLk6GJQsqaUBKTNV-1">
          <mxGeometry x="1410" y="65" width="160" height="120" as="geometry" />
        </mxCell>
        <mxCell id="BaK_DTcCmuOv_4i3QxiW-93" value="Actor" style="shape=umlActor;verticalLabelPosition=bottom;verticalAlign=top;html=1;outlineConnect=0;" vertex="1" parent="WIyWlLk6GJQsqaUBKTNV-1">
          <mxGeometry x="1745" y="220" width="30" height="60" as="geometry" />
        </mxCell>
        <mxCell id="BaK_DTcCmuOv_4i3QxiW-94" value="" style="endArrow=none;html=1;rounded=0;entryX=0;entryY=0.5;entryDx=0;entryDy=0;" edge="1" parent="WIyWlLk6GJQsqaUBKTNV-1">
          <mxGeometry width="50" height="50" relative="1" as="geometry">
            <mxPoint x="1785" y="250" as="sourcePoint" />
            <mxPoint x="1865" y="250" as="targetPoint" />
          </mxGeometry>
        </mxCell>
        <mxCell id="BaK_DTcCmuOv_4i3QxiW-95" value="" style="rounded=0;whiteSpace=wrap;html=1;fillColor=light-dark(#99FFFF,var(--ge-dark-color, #121212));" vertex="1" parent="WIyWlLk6GJQsqaUBKTNV-1">
          <mxGeometry x="1865" y="220" width="120" height="60" as="geometry" />
        </mxCell>
        <mxCell id="BaK_DTcCmuOv_4i3QxiW-96" value="Главная страница" style="text;html=1;align=center;verticalAlign=middle;whiteSpace=wrap;rounded=0;" vertex="1" parent="WIyWlLk6GJQsqaUBKTNV-1">
          <mxGeometry x="1895" y="235" width="60" height="30" as="geometry" />
        </mxCell>
        <mxCell id="BaK_DTcCmuOv_4i3QxiW-97" value="" style="endArrow=classic;html=1;rounded=0;exitX=1;exitY=0.5;exitDx=0;exitDy=0;" edge="1" parent="WIyWlLk6GJQsqaUBKTNV-1" source="BaK_DTcCmuOv_4i3QxiW-95">
          <mxGeometry relative="1" as="geometry">
            <mxPoint x="2015" y="240" as="sourcePoint" />
            <mxPoint x="2345" y="250" as="targetPoint" />
          </mxGeometry>
        </mxCell>
        <mxCell id="BaK_DTcCmuOv_4i3QxiW-98" value="Нажатие на кнопку &quot;Добавить друга&quot;" style="edgeLabel;html=1;align=center;verticalAlign=middle;resizable=0;points=[];" vertex="1" connectable="0" parent="BaK_DTcCmuOv_4i3QxiW-97">
          <mxGeometry x="-0.1951" relative="1" as="geometry">
            <mxPoint as="offset" />
          </mxGeometry>
        </mxCell>
        <mxCell id="BaK_DTcCmuOv_4i3QxiW-101" value="Пользователь заведомо авторизирован" style="text;html=1;align=center;verticalAlign=middle;whiteSpace=wrap;rounded=0;" vertex="1" parent="WIyWlLk6GJQsqaUBKTNV-1">
          <mxGeometry x="1730" y="160" width="60" height="30" as="geometry" />
        </mxCell>
        <mxCell id="BaK_DTcCmuOv_4i3QxiW-117" value="Actor 2&lt;div&gt;(friend)&lt;/div&gt;" style="shape=umlActor;verticalLabelPosition=bottom;verticalAlign=top;html=1;outlineConnect=0;" vertex="1" parent="WIyWlLk6GJQsqaUBKTNV-1">
          <mxGeometry x="2100" y="390" width="30" height="60" as="geometry" />
        </mxCell>
        <mxCell id="BaK_DTcCmuOv_4i3QxiW-123" value="" style="rounded=0;whiteSpace=wrap;html=1;fillColor=light-dark(#99FFFF,var(--ge-dark-color, #121212));" vertex="1" parent="WIyWlLk6GJQsqaUBKTNV-1">
          <mxGeometry x="2345" y="220" width="120" height="60" as="geometry" />
        </mxCell>
        <mxCell id="BaK_DTcCmuOv_4i3QxiW-124" value="Окно с вводом никнейма" style="text;html=1;align=center;verticalAlign=middle;whiteSpace=wrap;rounded=0;" vertex="1" parent="WIyWlLk6GJQsqaUBKTNV-1">
          <mxGeometry x="2375" y="235" width="60" height="30" as="geometry" />
        </mxCell>
        <mxCell id="BaK_DTcCmuOv_4i3QxiW-125" value="" style="endArrow=classic;html=1;rounded=0;exitX=0.25;exitY=1;exitDx=0;exitDy=0;entryX=0.492;entryY=0;entryDx=0;entryDy=0;entryPerimeter=0;" edge="1" parent="WIyWlLk6GJQsqaUBKTNV-1" source="BaK_DTcCmuOv_4i3QxiW-123" target="BaK_DTcCmuOv_4i3QxiW-127">
          <mxGeometry width="50" height="50" relative="1" as="geometry">
            <mxPoint x="2210" y="220" as="sourcePoint" />
            <mxPoint x="2359" y="380" as="targetPoint" />
          </mxGeometry>
        </mxCell>
        <mxCell id="BaK_DTcCmuOv_4i3QxiW-126" value="Никнейм введен верно" style="edgeLabel;html=1;align=center;verticalAlign=middle;resizable=0;points=[];" vertex="1" connectable="0" parent="BaK_DTcCmuOv_4i3QxiW-125">
          <mxGeometry x="-0.0691" y="-1" relative="1" as="geometry">
            <mxPoint x="-17" as="offset" />
          </mxGeometry>
        </mxCell>
        <mxCell id="BaK_DTcCmuOv_4i3QxiW-127" value="" style="rounded=0;whiteSpace=wrap;html=1;fillColor=light-dark(#99FFFF,var(--ge-dark-color, #121212));" vertex="1" parent="WIyWlLk6GJQsqaUBKTNV-1">
          <mxGeometry x="2255" y="390" width="120" height="60" as="geometry" />
        </mxCell>
        <mxCell id="BaK_DTcCmuOv_4i3QxiW-128" value="Уведомление о приглашении&amp;nbsp;" style="text;html=1;align=center;verticalAlign=middle;whiteSpace=wrap;rounded=0;" vertex="1" parent="WIyWlLk6GJQsqaUBKTNV-1">
          <mxGeometry x="2285" y="405" width="60" height="30" as="geometry" />
        </mxCell>
        <mxCell id="BaK_DTcCmuOv_4i3QxiW-132" value="" style="endArrow=classic;html=1;rounded=0;exitX=0;exitY=0.5;exitDx=0;exitDy=0;" edge="1" parent="WIyWlLk6GJQsqaUBKTNV-1" source="BaK_DTcCmuOv_4i3QxiW-127" target="BaK_DTcCmuOv_4i3QxiW-117">
          <mxGeometry width="50" height="50" relative="1" as="geometry">
            <mxPoint x="2170" y="390" as="sourcePoint" />
            <mxPoint x="2220" y="340" as="targetPoint" />
          </mxGeometry>
        </mxCell>
        <mxCell id="BaK_DTcCmuOv_4i3QxiW-134" value="" style="rounded=0;whiteSpace=wrap;html=1;fillColor=light-dark(#99FFFF,var(--ge-dark-color, #121212));" vertex="1" parent="WIyWlLk6GJQsqaUBKTNV-1">
          <mxGeometry x="2460" y="390" width="120" height="60" as="geometry" />
        </mxCell>
        <mxCell id="BaK_DTcCmuOv_4i3QxiW-135" value="" style="endArrow=classic;startArrow=classic;html=1;rounded=0;exitX=0.5;exitY=0;exitDx=0;exitDy=0;entryX=0.845;entryY=1.013;entryDx=0;entryDy=0;entryPerimeter=0;" edge="1" parent="WIyWlLk6GJQsqaUBKTNV-1" source="BaK_DTcCmuOv_4i3QxiW-134" target="BaK_DTcCmuOv_4i3QxiW-123">
          <mxGeometry width="50" height="50" relative="1" as="geometry">
            <mxPoint x="2180" y="340" as="sourcePoint" />
            <mxPoint x="2230" y="290" as="targetPoint" />
          </mxGeometry>
        </mxCell>
        <mxCell id="BaK_DTcCmuOv_4i3QxiW-137" value="Никнейм введен неверно" style="edgeLabel;html=1;align=center;verticalAlign=middle;resizable=0;points=[];" vertex="1" connectable="0" parent="BaK_DTcCmuOv_4i3QxiW-135">
          <mxGeometry x="-0.3397" y="-2" relative="1" as="geometry">
            <mxPoint x="13" y="-23" as="offset" />
          </mxGeometry>
        </mxCell>
        <mxCell id="BaK_DTcCmuOv_4i3QxiW-136" value="Уведомление об ошибке ввода" style="text;html=1;align=center;verticalAlign=middle;whiteSpace=wrap;rounded=0;" vertex="1" parent="WIyWlLk6GJQsqaUBKTNV-1">
          <mxGeometry x="2490" y="405" width="60" height="30" as="geometry" />
        </mxCell>
        <mxCell id="BaK_DTcCmuOv_4i3QxiW-138" value="" style="endArrow=classic;html=1;rounded=0;" edge="1" parent="WIyWlLk6GJQsqaUBKTNV-1">
          <mxGeometry width="50" height="50" relative="1" as="geometry">
            <mxPoint x="2090" y="400" as="sourcePoint" />
            <mxPoint x="1930" y="280" as="targetPoint" />
          </mxGeometry>
        </mxCell>
        <mxCell id="BaK_DTcCmuOv_4i3QxiW-139" value="Нажатие кнопки &quot;Отклонить&quot;" style="edgeLabel;html=1;align=center;verticalAlign=middle;resizable=0;points=[];" vertex="1" connectable="0" parent="BaK_DTcCmuOv_4i3QxiW-138">
          <mxGeometry x="0.0991" y="2" relative="1" as="geometry">
            <mxPoint x="-18" y="-16" as="offset" />
          </mxGeometry>
        </mxCell>
        <mxCell id="BaK_DTcCmuOv_4i3QxiW-140" value="" style="endArrow=classic;html=1;rounded=0;" edge="1" parent="WIyWlLk6GJQsqaUBKTNV-1" source="BaK_DTcCmuOv_4i3QxiW-117">
          <mxGeometry width="50" height="50" relative="1" as="geometry">
            <mxPoint x="1985" y="455" as="sourcePoint" />
            <mxPoint x="1920" y="550" as="targetPoint" />
          </mxGeometry>
        </mxCell>
        <mxCell id="BaK_DTcCmuOv_4i3QxiW-141" value="Нажатие кнопки &quot;Принять&quot;" style="edgeLabel;html=1;align=center;verticalAlign=middle;resizable=0;points=[];" vertex="1" connectable="0" parent="BaK_DTcCmuOv_4i3QxiW-140">
          <mxGeometry x="0.4656" y="-2" relative="1" as="geometry">
            <mxPoint x="1" as="offset" />
          </mxGeometry>
        </mxCell>
        <mxCell id="BaK_DTcCmuOv_4i3QxiW-142" value="" style="rounded=1;whiteSpace=wrap;html=1;fillColor=light-dark(#FFCC99,var(--ge-dark-color, #121212));" vertex="1" parent="WIyWlLk6GJQsqaUBKTNV-1">
          <mxGeometry x="1865" y="550" width="120" height="60" as="geometry" />
        </mxCell>
        <mxCell id="BaK_DTcCmuOv_4i3QxiW-143" value="Добавление в друзья" style="text;html=1;align=center;verticalAlign=middle;whiteSpace=wrap;rounded=0;" vertex="1" parent="WIyWlLk6GJQsqaUBKTNV-1">
          <mxGeometry x="1895" y="565" width="60" height="30" as="geometry" />
        </mxCell>
        <mxCell id="BaK_DTcCmuOv_4i3QxiW-144" value="" style="endArrow=classic;html=1;rounded=0;" edge="1" parent="WIyWlLk6GJQsqaUBKTNV-1">
          <mxGeometry width="50" height="50" relative="1" as="geometry">
            <mxPoint x="1985" y="590" as="sourcePoint" />
            <mxPoint x="2120" y="590" as="targetPoint" />
          </mxGeometry>
        </mxCell>
        <mxCell id="BaK_DTcCmuOv_4i3QxiW-146" value="" style="rounded=0;whiteSpace=wrap;html=1;fillColor=light-dark(#99FFFF,var(--ge-dark-color, #121212));" vertex="1" parent="WIyWlLk6GJQsqaUBKTNV-1">
          <mxGeometry x="2120" y="540" width="180" height="80" as="geometry" />
        </mxCell>
        <mxCell id="BaK_DTcCmuOv_4i3QxiW-147" value="- Обновление списка друзей(у обоих пользователей)&lt;div&gt;&lt;br&gt;&lt;div&gt;&lt;br&gt;&lt;/div&gt;&lt;div&gt;&lt;br&gt;&lt;/div&gt;&lt;/div&gt;" style="text;strokeColor=none;fillColor=none;align=left;verticalAlign=middle;spacingLeft=4;spacingRight=4;overflow=hidden;points=[[0,0.5],[1,0.5]];portConstraint=eastwest;rotatable=0;whiteSpace=wrap;html=1;" vertex="1" parent="WIyWlLk6GJQsqaUBKTNV-1">
          <mxGeometry x="2140" y="555" width="160" height="50" as="geometry" />
        </mxCell>
        <mxCell id="BaK_DTcCmuOv_4i3QxiW-148" value="" style="rounded=0;whiteSpace=wrap;html=1;fillColor=light-dark(#99FFFF,var(--ge-dark-color, #121212));" vertex="1" parent="WIyWlLk6GJQsqaUBKTNV-1">
          <mxGeometry x="1700" y="435" width="120" height="60" as="geometry" />
        </mxCell>
        <mxCell id="BaK_DTcCmuOv_4i3QxiW-149" value="Уведомление о принятии приглашения" style="text;html=1;align=center;verticalAlign=middle;whiteSpace=wrap;rounded=0;" vertex="1" parent="WIyWlLk6GJQsqaUBKTNV-1">
          <mxGeometry x="1730" y="450" width="60" height="30" as="geometry" />
        </mxCell>
        <mxCell id="BaK_DTcCmuOv_4i3QxiW-150" value="" style="endArrow=classic;html=1;rounded=0;entryX=0.5;entryY=1;entryDx=0;entryDy=0;exitX=0;exitY=0.5;exitDx=0;exitDy=0;" edge="1" parent="WIyWlLk6GJQsqaUBKTNV-1" source="BaK_DTcCmuOv_4i3QxiW-142" target="BaK_DTcCmuOv_4i3QxiW-148">
          <mxGeometry width="50" height="50" relative="1" as="geometry">
            <mxPoint x="1860" y="580" as="sourcePoint" />
            <mxPoint x="1850" y="515" as="targetPoint" />
          </mxGeometry>
        </mxCell>
        <mxCell id="BaK_DTcCmuOv_4i3QxiW-151" value="" style="endArrow=classic;html=1;rounded=0;" edge="1" parent="WIyWlLk6GJQsqaUBKTNV-1">
          <mxGeometry width="50" height="50" relative="1" as="geometry">
            <mxPoint x="1760" y="435" as="sourcePoint" />
            <mxPoint x="1760" y="310" as="targetPoint" />
          </mxGeometry>
        </mxCell>
        <mxCell id="BaK_DTcCmuOv_4i3QxiW-152" value="Actor 2&lt;div&gt;(friend)&lt;/div&gt;" style="shape=umlActor;verticalLabelPosition=bottom;verticalAlign=top;html=1;outlineConnect=0;" vertex="1" parent="WIyWlLk6GJQsqaUBKTNV-1">
          <mxGeometry x="935" y="30" width="30" height="60" as="geometry" />
        </mxCell>
        <mxCell id="BaK_DTcCmuOv_4i3QxiW-153" value="" style="endArrow=classic;html=1;rounded=0;entryX=-0.004;entryY=0.585;entryDx=0;entryDy=0;entryPerimeter=0;exitX=1.02;exitY=0.393;exitDx=0;exitDy=0;exitPerimeter=0;" edge="1" parent="WIyWlLk6GJQsqaUBKTNV-1" source="BaK_DTcCmuOv_4i3QxiW-88" target="BaK_DTcCmuOv_4i3QxiW-91">
          <mxGeometry width="50" height="50" relative="1" as="geometry">
            <mxPoint x="1260" y="270" as="sourcePoint" />
            <mxPoint x="1310" y="220" as="targetPoint" />
          </mxGeometry>
        </mxCell>
        <mxCell id="BaK_DTcCmuOv_4i3QxiW-155" value="" style="rounded=0;whiteSpace=wrap;html=1;fillColor=light-dark(#99FFFF,var(--ge-dark-color, #121212));" vertex="1" parent="WIyWlLk6GJQsqaUBKTNV-1">
          <mxGeometry x="890" y="245" width="120" height="60" as="geometry" />
        </mxCell>
        <mxCell id="BaK_DTcCmuOv_4i3QxiW-156" value="Уведомление о предоставлении доступа к плейлисту" style="text;html=1;align=center;verticalAlign=middle;whiteSpace=wrap;rounded=0;" vertex="1" parent="WIyWlLk6GJQsqaUBKTNV-1">
          <mxGeometry x="920" y="260" width="60" height="30" as="geometry" />
        </mxCell>
        <mxCell id="BaK_DTcCmuOv_4i3QxiW-157" value="" style="endArrow=classic;html=1;rounded=0;exitX=0;exitY=1;exitDx=0;exitDy=0;entryX=1;entryY=0;entryDx=0;entryDy=0;" edge="1" parent="WIyWlLk6GJQsqaUBKTNV-1" source="BaK_DTcCmuOv_4i3QxiW-88" target="BaK_DTcCmuOv_4i3QxiW-155">
          <mxGeometry width="50" height="50" relative="1" as="geometry">
            <mxPoint x="980" y="230" as="sourcePoint" />
            <mxPoint x="1030" y="180" as="targetPoint" />
          </mxGeometry>
        </mxCell>
        <mxCell id="BaK_DTcCmuOv_4i3QxiW-158" value="" style="endArrow=classic;html=1;rounded=0;" edge="1" parent="WIyWlLk6GJQsqaUBKTNV-1">
          <mxGeometry width="50" height="50" relative="1" as="geometry">
            <mxPoint x="945" y="245" as="sourcePoint" />
            <mxPoint x="945" y="130" as="targetPoint" />
          </mxGeometry>
        </mxCell>
        <mxCell id="BaK_DTcCmuOv_4i3QxiW-159" value="Пользователь заведомо авторизирован" style="text;html=1;align=center;verticalAlign=middle;whiteSpace=wrap;rounded=0;" vertex="1" parent="WIyWlLk6GJQsqaUBKTNV-1">
          <mxGeometry x="2085" y="340" width="60" height="30" as="geometry" />
        </mxCell>
        <mxCell id="BaK_DTcCmuOv_4i3QxiW-160" value="Пользователь заведомо авторизирован" style="text;html=1;align=center;verticalAlign=middle;whiteSpace=wrap;rounded=0;" vertex="1" parent="WIyWlLk6GJQsqaUBKTNV-1">
          <mxGeometry x="850" y="40" width="60" height="30" as="geometry" />
        </mxCell>
        <mxCell id="BaK_DTcCmuOv_4i3QxiW-164" value="" style="endArrow=classic;html=1;rounded=0;" edge="1" parent="WIyWlLk6GJQsqaUBKTNV-1">
          <mxGeometry width="50" height="50" relative="1" as="geometry">
            <mxPoint x="2250" y="390" as="sourcePoint" />
            <mxPoint x="1990" y="270" as="targetPoint" />
            <Array as="points">
              <mxPoint x="2180" y="310" />
            </Array>
          </mxGeometry>
        </mxCell>
      </root>
    </mxGraphModel>
  </diagram>
</mxfile>
